# xmcd
#
# Track frame offsets:
#	150
#	14632
#	28880
#	48436
#	65625
#	79440
#	94900
#	113146
#	131814
#	149751
#	165425
#	178165
#
# Disc length: 2592 seconds
#
# Revision: 0
# Processed by: cddbd v1.5.2PL0 Copyright (c) Steve Scherf et al.
# Submitted via: dBpowerAMP V4.0
#
DISCID=b60a1e0c
DTITLE=Various Artist - #1 Country Superstars Of The 90s
DYEAR=2007
DGENRE=Country
TTITLE0=Randy Travis - Look Heart, No Hands
TTITLE1=Clay Walker - Rumor Has It
TTITLE2=Travis Tritt - Foolish Pride
TTITLE3=Neal McCoy - No Doubt About It
TTITLE4=Tracy Lawrence - Time Marches On
TTITLE5=Highway 101 - Who's Lonely Now
TTITLE6=John Michael Montgomery - I Love The Way You Love Me
TTITLE7=Little Texas - My Love
TTITLE8=Bryan White - Rebecca Lynn
TTITLE9=Kevin Sharp - Nobody Knows
TTITLE10=Holly Dunn - You Really Had Me Going
TTITLE11=Michael Peterson - From Here To Enternity
EXTD=
EXTT0=
EXTT1=
EXTT2=
EXTT3=
EXTT4=
EXTT5=
EXTT6=
EXTT7=
EXTT8=
EXTT9=
EXTT10=
EXTT11=
PLAYORDER=
